<?xml version="1.0" encoding="UTF-8" standalone="no"?>
<!DOCTYPE svg PUBLIC "-//W3C//DTD SVG 1.0//EN"
 "http://www.w3.org/TR/2001/REC-SVG-20010904/DTD/svg10.dtd" [
 <!ATTLIST svg xmlns:xlink CDATA #FIXED "http://www.w3.org/1999/xlink">
]>
<!-- Generated by Graphviz version 2.20.2 (Tue Mar &#160;2 19:03:41 UTC 2010)
     For user: (tmtynkky) Tuomas M Tynkkynen, tkol -->
<!-- Title: G Pages: 1 -->
<svg width="792pt" height="259pt"
 viewBox="0.00 0.00 792.00 259.00" xmlns="http://www.w3.org/2000/svg" xmlns:xlink="http://www.w3.org/1999/xlink">
<g id="graph0" class="graph" transform="scale(1 1) rotate(0) translate(4 255)">
<title>G</title>
<polygon style="fill:white;stroke:white;" points="-4,4 -4,-255 788,-255 788,4 -4,4"/>
<!-- 1 -->
<g id="node1" class="node"><title>1</title>
<ellipse style="fill:none;stroke:black;" cx="71" cy="-126" rx="27" ry="18"/>
<text text-anchor="middle" x="71" y="-121.9" style="font-family:Times New Roman;font-size:14.00;">1</text>
</g>
<!-- 1&#45;&gt;1 -->
<g id="edge2" class="edge"><title>1&#45;&gt;1</title>
<path style="fill:none;stroke:black;" d="M53,-139C45,-150 51,-162 71,-162 85,-162 92,-156 92,-149"/>
<polygon style="fill:black;stroke:black;" points="95.2259,-147.573 89,-139 88.5212,-149.584 95.2259,-147.573"/>
<text text-anchor="middle" x="71" y="-165.9" style="font-family:Times New Roman;font-size:14.00;">\1&#45;\t \11&#45;) +&#45;. 0&#45;\127</text>
</g>
<!-- 4 -->
<g id="node4" class="node"><title>4</title>
<ellipse style="fill:none;stroke:black;" cx="377" cy="-126" rx="27" ry="18"/>
<text text-anchor="middle" x="377" y="-121.9" style="font-family:Times New Roman;font-size:14.00;">4</text>
</g>
<!-- 1&#45;&gt;4 -->
<g id="edge4" class="edge"><title>1&#45;&gt;4</title>
<path style="fill:none;stroke:black;" d="M98,-122C104,-121 110,-120 116,-120 195,-114 290,-119 340,-123"/>
<polygon style="fill:black;stroke:black;" points="339.701,-126.488 350,-124 340.398,-119.522 339.701,-126.488"/>
<text text-anchor="middle" x="188" y="-123.9" style="font-family:Times New Roman;font-size:14.00;">\n</text>
</g>
<!-- 2 -->
<g id="node6" class="node"><title>2</title>
<ellipse style="fill:none;stroke:black;" cx="305" cy="-195" rx="27" ry="18"/>
<text text-anchor="middle" x="305" y="-190.9" style="font-family:Times New Roman;font-size:14.00;">2</text>
</g>
<!-- 1&#45;&gt;2 -->
<g id="edge6" class="edge"><title>1&#45;&gt;2</title>
<path style="fill:none;stroke:black;" d="M94,-136C101,-139 109,-142 116,-144 179,-161 200,-144 260,-167 267,-169 273,-172 278,-176"/>
<polygon style="fill:black;stroke:black;" points="276.559,-179.203 287,-181 279.958,-173.084 276.559,-179.203"/>
<text text-anchor="middle" x="188" y="-170.9" style="font-family:Times New Roman;font-size:14.00;">*</text>
</g>
<!-- 3 -->
<g id="node8" class="node"><title>3</title>
<ellipse style="fill:none;stroke:black;" cx="305" cy="-45" rx="27" ry="18"/>
<text text-anchor="middle" x="305" y="-40.9" style="font-family:Times New Roman;font-size:14.00;">3</text>
</g>
<!-- 1&#45;&gt;3 -->
<g id="edge8" class="edge"><title>1&#45;&gt;3</title>
<path style="fill:none;stroke:black;" d="M76,-108C82,-89 94,-60 116,-47 164,-19 230,-27 270,-36"/>
<polygon style="fill:black;stroke:black;" points="269.508,-39.4708 280,-38 270.881,-32.6067 269.508,-39.4708"/>
<text text-anchor="middle" x="188" y="-50.9" style="font-family:Times New Roman;font-size:14.00;">/</text>
</g>
<!-- 131 (Newline) -->
<g id="node22" class="node"><title>131 (Newline)</title>
<ellipse style="fill:none;stroke:black;" cx="673" cy="-126" rx="79.2166" ry="18"/>
<text text-anchor="middle" x="673" y="-121.9" style="font-family:Times New Roman;font-size:14.00;">131 (Newline)</text>
</g>
<!-- 4&#45;&gt;131 (Newline) -->
<g id="edge26" class="edge"><title>4&#45;&gt;131 (Newline)</title>
<path style="fill:none;stroke:black;" d="M404,-126C445,-126 522,-126 584,-126"/>
<polygon style="fill:black;stroke:black;" points="584,-129.5 594,-126 584,-122.5 584,-129.5"/>
<text text-anchor="middle" x="449" y="-129.9" style="font-family:Times New Roman;font-size:14.00;">\0&#45;\127</text>
</g>
<!-- 2&#45;&gt;1 -->
<g id="edge10" class="edge"><title>2&#45;&gt;1</title>
<path style="fill:none;stroke:black;" d="M279,-200C241,-206 169,-211 116,-184 103,-177 92,-164 85,-152"/>
<polygon style="fill:black;stroke:black;" points="87.916,-150.042 80,-143 81.7969,-153.441 87.916,-150.042"/>
<text text-anchor="middle" x="188" y="-207.9" style="font-family:Times New Roman;font-size:14.00;">\1&#45;\t \11&#45;) +&#45;. 0&#45;\127</text>
</g>
<!-- 2&#45;&gt;2 -->
<g id="edge14" class="edge"><title>2&#45;&gt;2</title>
<path style="fill:none;stroke:black;" d="M292,-211C289,-221 294,-231 305,-231 312,-231 317,-227 318,-221"/>
<polygon style="fill:black;stroke:black;" points="321.5,-221 318,-211 314.5,-221 321.5,-221"/>
<text text-anchor="middle" x="305" y="-234.9" style="font-family:Times New Roman;font-size:14.00;">*</text>
</g>
<!-- 5 -->
<g id="node11" class="node"><title>5</title>
<ellipse style="fill:none;stroke:black;" cx="449" cy="-179" rx="27" ry="18"/>
<text text-anchor="middle" x="449" y="-174.9" style="font-family:Times New Roman;font-size:14.00;">5</text>
</g>
<!-- 2&#45;&gt;5 -->
<g id="edge12" class="edge"><title>2&#45;&gt;5</title>
<path style="fill:none;stroke:black;" d="M332,-192C354,-189 387,-186 412,-183"/>
<polygon style="fill:black;stroke:black;" points="412.398,-186.478 422,-182 411.701,-179.512 412.398,-186.478"/>
<text text-anchor="middle" x="377" y="-191.9" style="font-family:Times New Roman;font-size:14.00;">\n</text>
</g>
<!-- 6 -->
<g id="node14" class="node"><title>6</title>
<ellipse style="fill:none;stroke:black;" cx="449" cy="-233" rx="27" ry="18"/>
<text text-anchor="middle" x="449" y="-228.9" style="font-family:Times New Roman;font-size:14.00;">6</text>
</g>
<!-- 2&#45;&gt;6 -->
<g id="edge16" class="edge"><title>2&#45;&gt;6</title>
<path style="fill:none;stroke:black;" d="M330,-201C337,-203 344,-205 350,-207 371,-212 395,-219 414,-224"/>
<polygon style="fill:black;stroke:black;" points="413.508,-227.471 424,-226 414.881,-220.607 413.508,-227.471"/>
<text text-anchor="middle" x="377" y="-222.9" style="font-family:Times New Roman;font-size:14.00;">/</text>
</g>
<!-- 3&#45;&gt;1 -->
<g id="edge18" class="edge"><title>3&#45;&gt;1</title>
<path style="fill:none;stroke:black;" d="M283,-56C276,-59 268,-62 260,-64 198,-81 175,-59 116,-87 108,-91 100,-97 93,-103"/>
<polygon style="fill:black;stroke:black;" points="90.221,-100.781 85,-110 94.8306,-106.049 90.221,-100.781"/>
<text text-anchor="middle" x="188" y="-90.9" style="font-family:Times New Roman;font-size:14.00;">\1&#45;\t \11&#45;) +&#45;. 0&#45;\127</text>
</g>
<!-- 3&#45;&gt;3 -->
<g id="edge24" class="edge"><title>3&#45;&gt;3</title>
<path style="fill:none;stroke:black;" d="M292,-61C289,-71 294,-81 305,-81 312,-81 317,-77 318,-71"/>
<polygon style="fill:black;stroke:black;" points="321.5,-71 318,-61 314.5,-71 321.5,-71"/>
<text text-anchor="middle" x="305" y="-84.9" style="font-family:Times New Roman;font-size:14.00;">/</text>
</g>
<!-- 7 -->
<g id="node17" class="node"><title>7</title>
<ellipse style="fill:none;stroke:black;" cx="449" cy="-72" rx="27" ry="18"/>
<text text-anchor="middle" x="449" y="-67.9" style="font-family:Times New Roman;font-size:14.00;">7</text>
</g>
<!-- 3&#45;&gt;7 -->
<g id="edge20" class="edge"><title>3&#45;&gt;7</title>
<path style="fill:none;stroke:black;" d="M331,-50C354,-54 388,-60 413,-65"/>
<polygon style="fill:black;stroke:black;" points="412.508,-68.4708 423,-67 413.881,-61.6067 412.508,-68.4708"/>
<text text-anchor="middle" x="377" y="-65.9" style="font-family:Times New Roman;font-size:14.00;">\n</text>
</g>
<!-- 8 -->
<g id="node19" class="node"><title>8</title>
<ellipse style="fill:none;stroke:black;" cx="449" cy="-18" rx="27" ry="18"/>
<text text-anchor="middle" x="449" y="-13.9" style="font-family:Times New Roman;font-size:14.00;">8</text>
</g>
<!-- 3&#45;&gt;8 -->
<g id="edge22" class="edge"><title>3&#45;&gt;8</title>
<path style="fill:none;stroke:black;" d="M329,-37C336,-35 343,-33 350,-31 370,-27 393,-24 412,-21"/>
<polygon style="fill:black;stroke:black;" points="412.398,-24.4778 422,-20 411.701,-17.5125 412.398,-24.4778"/>
<text text-anchor="middle" x="377" y="-38.9" style="font-family:Times New Roman;font-size:14.00;">*</text>
</g>
<!-- 5&#45;&gt;131 (Newline) -->
<g id="edge28" class="edge"><title>5&#45;&gt;131 (Newline)</title>
<path style="fill:none;stroke:black;" d="M475,-173C508,-166 563,-152 608,-141"/>
<polygon style="fill:black;stroke:black;" points="608.881,-144.393 618,-139 607.508,-137.529 608.881,-144.393"/>
<text text-anchor="middle" x="519" y="-170.9" style="font-family:Times New Roman;font-size:14.00;">\0&#45;\127</text>
</g>
<!-- 134 (CommentEnd) -->
<g id="node25" class="node"><title>134 (CommentEnd)</title>
<ellipse style="fill:none;stroke:black;" cx="673" cy="-233" rx="104.927" ry="18"/>
<text text-anchor="middle" x="673" y="-228.9" style="font-family:Times New Roman;font-size:14.00;">134 (CommentEnd)</text>
</g>
<!-- 6&#45;&gt;134 (CommentEnd) -->
<g id="edge30" class="edge"><title>6&#45;&gt;134 (CommentEnd)</title>
<path style="fill:none;stroke:black;" d="M476,-233C497,-233 527,-233 558,-233"/>
<polygon style="fill:black;stroke:black;" points="558,-236.5 568,-233 558,-229.5 558,-236.5"/>
<text text-anchor="middle" x="519" y="-236.9" style="font-family:Times New Roman;font-size:14.00;">\0&#45;\127</text>
</g>
<!-- 7&#45;&gt;131 (Newline) -->
<g id="edge32" class="edge"><title>7&#45;&gt;131 (Newline)</title>
<path style="fill:none;stroke:black;" d="M475,-78C508,-85 564,-100 609,-111"/>
<polygon style="fill:black;stroke:black;" points="608.508,-114.471 619,-113 609.881,-107.607 608.508,-114.471"/>
<text text-anchor="middle" x="519" y="-96.9" style="font-family:Times New Roman;font-size:14.00;">\0&#45;\127</text>
</g>
<!-- 133 (CommentStart) -->
<g id="node28" class="node"><title>133 (CommentStart)</title>
<ellipse style="fill:none;stroke:black;" cx="673" cy="-18" rx="111.181" ry="18"/>
<text text-anchor="middle" x="673" y="-13.9" style="font-family:Times New Roman;font-size:14.00;">133 (CommentStart)</text>
</g>
<!-- 8&#45;&gt;133 (CommentStart) -->
<g id="edge34" class="edge"><title>8&#45;&gt;133 (CommentStart)</title>
<path style="fill:none;stroke:black;" d="M476,-18C496,-18 523,-18 552,-18"/>
<polygon style="fill:black;stroke:black;" points="552,-21.5001 562,-18 552,-14.5001 552,-21.5001"/>
<text text-anchor="middle" x="519" y="-22.9" style="font-family:Times New Roman;font-size:14.00;">\0&#45;\127</text>
</g>
</g>
</svg>
