<?xml version="1.0" encoding="UTF-8" standalone="no"?>
<!DOCTYPE svg PUBLIC "-//W3C//DTD SVG 1.0//EN"
 "http://www.w3.org/TR/2001/REC-SVG-20010904/DTD/svg10.dtd" [
 <!ATTLIST svg xmlns:xlink CDATA #FIXED "http://www.w3.org/1999/xlink">
]>
<!-- Generated by Graphviz version 2.20.2 (Tue Mar &#160;2 19:03:41 UTC 2010)
     For user: (tmtynkky) Tuomas M Tynkkynen, tkol -->
<!-- Title: G Pages: 1 -->
<svg width="983pt" height="1152pt"
 viewBox="0.00 0.00 982.94 1152.00" xmlns="http://www.w3.org/2000/svg" xmlns:xlink="http://www.w3.org/1999/xlink">
<g id="graph0" class="graph" transform="scale(0.713313 0.713313) rotate(0) translate(4 1611)">
<title>G</title>
<polygon style="fill:white;stroke:white;" points="-4,4 -4,-1611 1374,-1611 1374,4 -4,4"/>
<!-- 1 -->
<g id="node1" class="node"><title>1</title>
<ellipse style="fill:none;stroke:black;" cx="27" cy="-863" rx="27" ry="18"/>
<text text-anchor="middle" x="27" y="-858.9" style="font-family:Times New Roman;font-size:14.00;">1</text>
</g>
<!-- 9 -->
<g id="node3" class="node"><title>9</title>
<ellipse style="fill:none;stroke:black;" cx="181" cy="-1543" rx="27" ry="18"/>
<text text-anchor="middle" x="181" y="-1538.9" style="font-family:Times New Roman;font-size:14.00;">9</text>
</g>
<!-- 1&#45;&gt;9 -->
<g id="edge2" class="edge"><title>1&#45;&gt;9</title>
<path style="fill:none;stroke:black;" d="M27,-881C28,-979 36,-1442 72,-1494 89,-1518 120,-1530 145,-1537"/>
<polygon style="fill:black;stroke:black;" points="144.508,-1540.47 155,-1539 145.881,-1533.61 144.508,-1540.47"/>
<text text-anchor="middle" x="104" y="-1534.9" style="font-family:Times New Roman;font-size:14.00;">\t \r \32</text>
</g>
<!-- 11 -->
<g id="node5" class="node"><title>11</title>
<ellipse style="fill:none;stroke:black;" cx="321" cy="-1500" rx="27" ry="18"/>
<text text-anchor="middle" x="321" y="-1495.9" style="font-family:Times New Roman;font-size:14.00;">11</text>
</g>
<!-- 1&#45;&gt;11 -->
<g id="edge4" class="edge"><title>1&#45;&gt;11</title>
<path style="fill:none;stroke:black;" d="M28,-881C32,-965 50,-1314 72,-1358 114,-1440 227,-1478 285,-1493"/>
<polygon style="fill:black;stroke:black;" points="284.508,-1496.47 295,-1495 285.881,-1489.61 284.508,-1496.47"/>
<text text-anchor="middle" x="104" y="-1428.9" style="font-family:Times New Roman;font-size:14.00;">\n</text>
</g>
<!-- 16 -->
<g id="node7" class="node"><title>16</title>
<ellipse style="fill:none;stroke:black;" cx="181" cy="-1403" rx="27" ry="18"/>
<text text-anchor="middle" x="181" y="-1398.9" style="font-family:Times New Roman;font-size:14.00;">16</text>
</g>
<!-- 1&#45;&gt;16 -->
<g id="edge6" class="edge"><title>1&#45;&gt;16</title>
<path style="fill:none;stroke:black;" d="M28,-881C33,-945 50,-1160 72,-1225 93,-1285 136,-1346 162,-1379"/>
<polygon style="fill:black;stroke:black;" points="159.2,-1381.1 168,-1387 164.8,-1376.9 159.2,-1381.1"/>
<text text-anchor="middle" x="104" y="-1340.9" style="font-family:Times New Roman;font-size:14.00;">!</text>
</g>
<!-- 4 -->
<g id="node9" class="node"><title>4</title>
<ellipse style="fill:none;stroke:black;" cx="181" cy="-1234" rx="27" ry="18"/>
<text text-anchor="middle" x="181" y="-1229.9" style="font-family:Times New Roman;font-size:14.00;">4</text>
</g>
<!-- 1&#45;&gt;4 -->
<g id="edge8" class="edge"><title>1&#45;&gt;4</title>
<path style="fill:none;stroke:black;" d="M28,-881C32,-936 46,-1098 72,-1144 91,-1176 125,-1202 151,-1217"/>
<polygon style="fill:black;stroke:black;" points="149.559,-1220.2 160,-1222 152.958,-1214.08 149.559,-1220.2"/>
<text text-anchor="middle" x="104" y="-1207.9" style="font-family:Times New Roman;font-size:14.00;">&quot;</text>
</g>
<!-- 28 -->
<g id="node11" class="node"><title>28</title>
<ellipse style="fill:none;stroke:black;" cx="181" cy="-1133" rx="27" ry="18"/>
<text text-anchor="middle" x="181" y="-1128.9" style="font-family:Times New Roman;font-size:14.00;">28</text>
</g>
<!-- 1&#45;&gt;28 -->
<g id="edge10" class="edge"><title>1&#45;&gt;28</title>
<path style="fill:none;stroke:black;" d="M28,-881C33,-929 46,-1056 72,-1088 90,-1110 121,-1121 145,-1127"/>
<polygon style="fill:black;stroke:black;" points="144.508,-1130.47 155,-1129 145.881,-1123.61 144.508,-1130.47"/>
<text text-anchor="middle" x="104" y="-1126.9" style="font-family:Times New Roman;font-size:14.00;">&amp;</text>
</g>
<!-- 22 -->
<g id="node13" class="node"><title>22</title>
<ellipse style="fill:none;stroke:black;" cx="181" cy="-1079" rx="27" ry="18"/>
<text text-anchor="middle" x="181" y="-1074.9" style="font-family:Times New Roman;font-size:14.00;">22</text>
</g>
<!-- 1&#45;&gt;22 -->
<g id="edge12" class="edge"><title>1&#45;&gt;22</title>
<path style="fill:none;stroke:black;" d="M30,-881C36,-920 53,-1008 72,-1031 91,-1053 121,-1065 145,-1071"/>
<polygon style="fill:black;stroke:black;" points="144.416,-1074.48 155,-1074 146.427,-1067.77 144.416,-1074.48"/>
<text text-anchor="middle" x="104" y="-1070.9" style="font-family:Times New Roman;font-size:14.00;">(</text>
</g>
<!-- 23 -->
<g id="node15" class="node"><title>23</title>
<ellipse style="fill:none;stroke:black;" cx="181" cy="-1025" rx="27" ry="18"/>
<text text-anchor="middle" x="181" y="-1020.9" style="font-family:Times New Roman;font-size:14.00;">23</text>
</g>
<!-- 1&#45;&gt;23 -->
<g id="edge14" class="edge"><title>1&#45;&gt;23</title>
<path style="fill:none;stroke:black;" d="M30,-881C35,-905 47,-949 72,-976 92,-996 122,-1009 145,-1016"/>
<polygon style="fill:black;stroke:black;" points="144.416,-1019.48 155,-1019 146.427,-1012.77 144.416,-1019.48"/>
<text text-anchor="middle" x="104" y="-1013.9" style="font-family:Times New Roman;font-size:14.00;">)</text>
</g>
<!-- 27 -->
<g id="node17" class="node"><title>27</title>
<ellipse style="fill:none;stroke:black;" cx="181" cy="-971" rx="27" ry="18"/>
<text text-anchor="middle" x="181" y="-966.9" style="font-family:Times New Roman;font-size:14.00;">27</text>
</g>
<!-- 1&#45;&gt;27 -->
<g id="edge16" class="edge"><title>1&#45;&gt;27</title>
<path style="fill:none;stroke:black;" d="M36,-880C44,-893 57,-912 72,-924 95,-941 123,-954 146,-961"/>
<polygon style="fill:black;stroke:black;" points="145.416,-964.479 156,-964 147.427,-957.774 145.416,-964.479"/>
<text text-anchor="middle" x="104" y="-958.9" style="font-family:Times New Roman;font-size:14.00;">*</text>
</g>
<!-- 25 -->
<g id="node19" class="node"><title>25</title>
<ellipse style="fill:none;stroke:black;" cx="181" cy="-917" rx="27" ry="18"/>
<text text-anchor="middle" x="181" y="-912.9" style="font-family:Times New Roman;font-size:14.00;">25</text>
</g>
<!-- 1&#45;&gt;25 -->
<g id="edge18" class="edge"><title>1&#45;&gt;25</title>
<path style="fill:none;stroke:black;" d="M49,-874C56,-877 64,-881 72,-884 96,-893 125,-902 146,-907"/>
<polygon style="fill:black;stroke:black;" points="145.416,-910.479 156,-910 147.427,-903.774 145.416,-910.479"/>
<text text-anchor="middle" x="104" y="-906.9" style="font-family:Times New Roman;font-size:14.00;">+</text>
</g>
<!-- 26 -->
<g id="node21" class="node"><title>26</title>
<ellipse style="fill:none;stroke:black;" cx="181" cy="-863" rx="27" ry="18"/>
<text text-anchor="middle" x="181" y="-858.9" style="font-family:Times New Roman;font-size:14.00;">26</text>
</g>
<!-- 1&#45;&gt;26 -->
<g id="edge20" class="edge"><title>1&#45;&gt;26</title>
<path style="fill:none;stroke:black;" d="M54,-863C79,-863 116,-863 144,-863"/>
<polygon style="fill:black;stroke:black;" points="144,-866.5 154,-863 144,-859.5 144,-866.5"/>
<text text-anchor="middle" x="104" y="-866.9" style="font-family:Times New Roman;font-size:14.00;">&#45;</text>
</g>
<!-- 14 -->
<g id="node23" class="node"><title>14</title>
<ellipse style="fill:none;stroke:black;" cx="181" cy="-809" rx="27" ry="18"/>
<text text-anchor="middle" x="181" y="-804.9" style="font-family:Times New Roman;font-size:14.00;">14</text>
</g>
<!-- 1&#45;&gt;14 -->
<g id="edge22" class="edge"><title>1&#45;&gt;14</title>
<path style="fill:none;stroke:black;" d="M49,-852C56,-848 64,-845 72,-842 96,-833 124,-824 145,-818"/>
<polygon style="fill:black;stroke:black;" points="146.427,-821.226 155,-815 144.416,-814.521 146.427,-821.226"/>
<text text-anchor="middle" x="104" y="-845.9" style="font-family:Times New Roman;font-size:14.00;">.</text>
</g>
<!-- 30 -->
<g id="node25" class="node"><title>30</title>
<ellipse style="fill:none;stroke:black;" cx="181" cy="-681" rx="27" ry="18"/>
<text text-anchor="middle" x="181" y="-676.9" style="font-family:Times New Roman;font-size:14.00;">30</text>
</g>
<!-- 1&#45;&gt;30 -->
<g id="edge24" class="edge"><title>1&#45;&gt;30</title>
<path style="fill:none;stroke:black;" d="M37,-846C45,-832 58,-813 72,-799 97,-775 113,-781 136,-757 150,-742 161,-723 169,-708"/>
<polygon style="fill:black;stroke:black;" points="172.203,-709.441 174,-699 166.084,-706.042 172.203,-709.441"/>
<text text-anchor="middle" x="104" y="-804.9" style="font-family:Times New Roman;font-size:14.00;">/</text>
</g>
<!-- 3 -->
<g id="node27" class="node"><title>3</title>
<ellipse style="fill:none;stroke:black;" cx="181" cy="-552" rx="27" ry="18"/>
<text text-anchor="middle" x="181" y="-547.9" style="font-family:Times New Roman;font-size:14.00;">3</text>
</g>
<!-- 1&#45;&gt;3 -->
<g id="edge26" class="edge"><title>1&#45;&gt;3</title>
<path style="fill:none;stroke:black;" d="M29,-845C32,-818 43,-767 72,-736 94,-713 116,-732 136,-710 141,-705 162,-624 174,-580"/>
<polygon style="fill:black;stroke:black;" points="177.471,-580.492 176,-570 170.607,-579.119 177.471,-580.492"/>
<text text-anchor="middle" x="104" y="-739.9" style="font-family:Times New Roman;font-size:14.00;">0&#45;9</text>
</g>
<!-- 12 -->
<g id="node29" class="node"><title>12</title>
<ellipse style="fill:none;stroke:black;" cx="181" cy="-450" rx="27" ry="18"/>
<text text-anchor="middle" x="181" y="-445.9" style="font-family:Times New Roman;font-size:14.00;">12</text>
</g>
<!-- 1&#45;&gt;12 -->
<g id="edge28" class="edge"><title>1&#45;&gt;12</title>
<path style="fill:none;stroke:black;" d="M30,-845C36,-805 53,-713 72,-689 92,-663 118,-681 136,-655 170,-607 141,-581 154,-525 158,-508 165,-491 170,-477"/>
<polygon style="fill:black;stroke:black;" points="173.536,-477.585 174,-467 167.036,-474.985 173.536,-477.585"/>
<text text-anchor="middle" x="104" y="-695.9" style="font-family:Times New Roman;font-size:14.00;">:</text>
</g>
<!-- 24 -->
<g id="node31" class="node"><title>24</title>
<ellipse style="fill:none;stroke:black;" cx="181" cy="-369" rx="27" ry="18"/>
<text text-anchor="middle" x="181" y="-364.9" style="font-family:Times New Roman;font-size:14.00;">24</text>
</g>
<!-- 1&#45;&gt;24 -->
<g id="edge30" class="edge"><title>1&#45;&gt;24</title>
<path style="fill:none;stroke:black;" d="M29,-845C34,-797 50,-670 72,-634 91,-603 119,-616 136,-585 172,-521 134,-492 154,-423 157,-413 161,-403 166,-395"/>
<polygon style="fill:black;stroke:black;" points="169.203,-396.441 171,-386 163.084,-393.042 169.203,-396.441"/>
<text text-anchor="middle" x="104" y="-638.9" style="font-family:Times New Roman;font-size:14.00;">;</text>
</g>
<!-- 18 -->
<g id="node33" class="node"><title>18</title>
<ellipse style="fill:none;stroke:black;" cx="181" cy="-288" rx="27" ry="18"/>
<text text-anchor="middle" x="181" y="-283.9" style="font-family:Times New Roman;font-size:14.00;">18</text>
</g>
<!-- 1&#45;&gt;18 -->
<g id="edge32" class="edge"><title>1&#45;&gt;18</title>
<path style="fill:none;stroke:black;" d="M28,-845C33,-788 50,-615 72,-564 91,-523 119,-527 136,-486 162,-426 136,-403 154,-342 157,-332 161,-322 166,-314"/>
<polygon style="fill:black;stroke:black;" points="169.203,-315.441 171,-305 163.084,-312.042 169.203,-315.441"/>
<text text-anchor="middle" x="104" y="-570.9" style="font-family:Times New Roman;font-size:14.00;">&lt;</text>
</g>
<!-- 29 -->
<g id="node35" class="node"><title>29</title>
<ellipse style="fill:none;stroke:black;" cx="181" cy="-207" rx="27" ry="18"/>
<text text-anchor="middle" x="181" y="-202.9" style="font-family:Times New Roman;font-size:14.00;">29</text>
</g>
<!-- 1&#45;&gt;29 -->
<g id="edge34" class="edge"><title>1&#45;&gt;29</title>
<path style="fill:none;stroke:black;" d="M28,-845C33,-777 51,-538 72,-465 91,-399 113,-390 136,-327 147,-298 144,-289 154,-261 158,-251 162,-242 167,-233"/>
<polygon style="fill:black;stroke:black;" points="170.137,-234.56 171,-224 163.74,-231.717 170.137,-234.56"/>
<text text-anchor="middle" x="104" y="-478.9" style="font-family:Times New Roman;font-size:14.00;">=</text>
</g>
<!-- 20 -->
<g id="node37" class="node"><title>20</title>
<ellipse style="fill:none;stroke:black;" cx="181" cy="-126" rx="27" ry="18"/>
<text text-anchor="middle" x="181" y="-121.9" style="font-family:Times New Roman;font-size:14.00;">20</text>
</g>
<!-- 1&#45;&gt;20 -->
<g id="edge36" class="edge"><title>1&#45;&gt;20</title>
<path style="fill:none;stroke:black;" d="M27,-845C29,-761 39,-410 72,-306 92,-245 136,-183 162,-150"/>
<polygon style="fill:black;stroke:black;" points="164.8,-152.1 168,-142 159.2,-147.9 164.8,-152.1"/>
<text text-anchor="middle" x="104" y="-315.9" style="font-family:Times New Roman;font-size:14.00;">&gt;</text>
</g>
<!-- 2 -->
<g id="node39" class="node"><title>2</title>
<ellipse style="fill:none;stroke:black;" cx="181" cy="-28" rx="27" ry="18"/>
<text text-anchor="middle" x="181" y="-23.9" style="font-family:Times New Roman;font-size:14.00;">2</text>
</g>
<!-- 1&#45;&gt;2 -->
<g id="edge38" class="edge"><title>1&#45;&gt;2</title>
<path style="fill:none;stroke:black;" d="M28,-845C31,-742 48,-232 72,-167 91,-120 131,-75 157,-50"/>
<polygon style="fill:black;stroke:black;" points="159.779,-52.2191 165,-43 155.169,-46.9511 159.779,-52.2191"/>
<text text-anchor="middle" x="104" y="-177.9" style="font-family:Times New Roman;font-size:14.00;">A&#45;Z _ a&#45;z</text>
</g>
<!-- 9&#45;&gt;9 -->
<g id="edge70" class="edge"><title>9&#45;&gt;9</title>
<path style="fill:none;stroke:black;" d="M168,-1559C164,-1569 169,-1579 181,-1579 189,-1579 194,-1575 195,-1569"/>
<polygon style="fill:black;stroke:black;" points="198.478,-1568.6 194,-1559 191.512,-1569.3 198.478,-1568.6"/>
<text text-anchor="middle" x="181" y="-1582.9" style="font-family:Times New Roman;font-size:14.00;">\t \r \32</text>
</g>
<!-- 132 (Whitespace) -->
<g id="node64" class="node"><title>132 (Whitespace)</title>
<ellipse style="fill:none;stroke:black;" cx="530" cy="-1589" rx="95.8938" ry="18"/>
<text text-anchor="middle" x="530" y="-1584.9" style="font-family:Times New Roman;font-size:14.00;">132 (Whitespace)</text>
</g>
<!-- 9&#45;&gt;132 (Whitespace) -->
<g id="edge68" class="edge"><title>9&#45;&gt;132 (Whitespace)</title>
<path style="fill:none;stroke:black;" d="M202,-1554C209,-1558 218,-1562 226,-1564 290,-1581 364,-1587 424,-1589"/>
<polygon style="fill:black;stroke:black;" points="424,-1592.5 434,-1589 424,-1585.5 424,-1592.5"/>
<text text-anchor="middle" x="321" y="-1590.9" style="font-family:Times New Roman;font-size:14.00;">\0&#45;\8 \11&#45;\12 \14&#45;\31 !&#45;\127</text>
</g>
<!-- 10 -->
<g id="node67" class="node"><title>10</title>
<ellipse style="fill:none;stroke:black;" cx="709" cy="-1544" rx="27" ry="18"/>
<text text-anchor="middle" x="709" y="-1539.9" style="font-family:Times New Roman;font-size:14.00;">10</text>
</g>
<!-- 9&#45;&gt;10 -->
<g id="edge72" class="edge"><title>9&#45;&gt;10</title>
<path style="fill:none;stroke:black;" d="M208,-1541C214,-1540 220,-1540 226,-1540 393,-1534 590,-1540 672,-1543"/>
<polygon style="fill:black;stroke:black;" points="672,-1546.5 682,-1543 672,-1539.5 672,-1546.5"/>
<text text-anchor="middle" x="321" y="-1543.9" style="font-family:Times New Roman;font-size:14.00;">\n</text>
</g>
<!-- 131 (Newline) -->
<g id="node69" class="node"><title>131 (Newline)</title>
<ellipse style="fill:none;stroke:black;" cx="1291" cy="-1057" rx="79.2166" ry="18"/>
<text text-anchor="middle" x="1291" y="-1052.9" style="font-family:Times New Roman;font-size:14.00;">131 (Newline)</text>
</g>
<!-- 11&#45;&gt;131 (Newline) -->
<g id="edge76" class="edge"><title>11&#45;&gt;131 (Newline)</title>
<path style="fill:none;stroke:black;" d="M348,-1499C481,-1495 1062,-1476 1126,-1430 1244,-1344 1279,-1157 1288,-1085"/>
<polygon style="fill:black;stroke:black;" points="1291.49,-1085.3 1289,-1075 1284.52,-1084.6 1291.49,-1085.3"/>
<text text-anchor="middle" x="709" y="-1489.9" style="font-family:Times New Roman;font-size:14.00;">\0&#45;\127</text>
</g>
<!-- 158 (Not) -->
<g id="node84" class="node"><title>158 (Not)</title>
<ellipse style="fill:none;stroke:black;" cx="530" cy="-1457" rx="57.1737" ry="18"/>
<text text-anchor="middle" x="530" y="-1452.9" style="font-family:Times New Roman;font-size:14.00;">158 (Not)</text>
</g>
<!-- 16&#45;&gt;158 (Not) -->
<g id="edge90" class="edge"><title>16&#45;&gt;158 (Not)</title>
<path style="fill:none;stroke:black;" d="M202,-1414C209,-1418 218,-1422 226,-1424 306,-1446 399,-1453 462,-1456"/>
<polygon style="fill:black;stroke:black;" points="462,-1459.5 472,-1456 462,-1452.5 462,-1459.5"/>
<text text-anchor="middle" x="321" y="-1455.9" style="font-family:Times New Roman;font-size:14.00;">\0&#45;&lt; &gt;&#45;\127</text>
</g>
<!-- 17 -->
<g id="node86" class="node"><title>17</title>
<ellipse style="fill:none;stroke:black;" cx="530" cy="-1403" rx="27" ry="18"/>
<text text-anchor="middle" x="530" y="-1398.9" style="font-family:Times New Roman;font-size:14.00;">17</text>
</g>
<!-- 16&#45;&gt;17 -->
<g id="edge92" class="edge"><title>16&#45;&gt;17</title>
<path style="fill:none;stroke:black;" d="M208,-1403C270,-1403 421,-1403 493,-1403"/>
<polygon style="fill:black;stroke:black;" points="493,-1406.5 503,-1403 493,-1399.5 493,-1406.5"/>
<text text-anchor="middle" x="321" y="-1406.9" style="font-family:Times New Roman;font-size:14.00;">=</text>
</g>
<!-- 4&#45;&gt;4 -->
<g id="edge50" class="edge"><title>4&#45;&gt;4</title>
<path style="fill:none;stroke:black;" d="M168,-1250C164,-1260 169,-1270 181,-1270 189,-1270 194,-1266 195,-1260"/>
<polygon style="fill:black;stroke:black;" points="198.478,-1259.6 194,-1250 191.512,-1260.3 198.478,-1259.6"/>
<text text-anchor="middle" x="181" y="-1273.9" style="font-family:Times New Roman;font-size:14.00;">\1&#45;\t \11&#45;! #&#45;[ ]&#45;\127</text>
</g>
<!-- 8 -->
<g id="node47" class="node"><title>8</title>
<ellipse style="fill:none;stroke:black;" cx="530" cy="-1349" rx="27" ry="18"/>
<text text-anchor="middle" x="530" y="-1344.9" style="font-family:Times New Roman;font-size:14.00;">8</text>
</g>
<!-- 4&#45;&gt;8 -->
<g id="edge48" class="edge"><title>4&#45;&gt;8</title>
<path style="fill:none;stroke:black;" d="M187,-1252C193,-1270 206,-1296 226,-1310 309,-1364 432,-1360 493,-1354"/>
<polygon style="fill:black;stroke:black;" points="493.398,-1357.48 503,-1353 492.701,-1350.51 493.398,-1357.48"/>
<text text-anchor="middle" x="321" y="-1359.9" style="font-family:Times New Roman;font-size:14.00;">\0</text>
</g>
<!-- 7 -->
<g id="node50" class="node"><title>7</title>
<ellipse style="fill:none;stroke:black;" cx="530" cy="-1295" rx="27" ry="18"/>
<text text-anchor="middle" x="530" y="-1290.9" style="font-family:Times New Roman;font-size:14.00;">7</text>
</g>
<!-- 4&#45;&gt;7 -->
<g id="edge52" class="edge"><title>4&#45;&gt;7</title>
<path style="fill:none;stroke:black;" d="M201,-1246C208,-1251 217,-1255 226,-1258 319,-1286 435,-1293 493,-1295"/>
<polygon style="fill:black;stroke:black;" points="493,-1298.5 503,-1295 493,-1291.5 493,-1298.5"/>
<text text-anchor="middle" x="321" y="-1292.9" style="font-family:Times New Roman;font-size:14.00;">\n</text>
</g>
<!-- 6 -->
<g id="node52" class="node"><title>6</title>
<ellipse style="fill:none;stroke:black;" cx="530" cy="-1241" rx="27" ry="18"/>
<text text-anchor="middle" x="530" y="-1236.9" style="font-family:Times New Roman;font-size:14.00;">6</text>
</g>
<!-- 4&#45;&gt;6 -->
<g id="edge54" class="edge"><title>4&#45;&gt;6</title>
<path style="fill:none;stroke:black;" d="M208,-1235C270,-1236 421,-1239 493,-1240"/>
<polygon style="fill:black;stroke:black;" points="493,-1243.5 503,-1240 493,-1236.5 493,-1243.5"/>
<text text-anchor="middle" x="321" y="-1240.9" style="font-family:Times New Roman;font-size:14.00;">&quot;</text>
</g>
<!-- 5 -->
<g id="node54" class="node"><title>5</title>
<ellipse style="fill:none;stroke:black;" cx="530" cy="-1187" rx="27" ry="18"/>
<text text-anchor="middle" x="530" y="-1182.9" style="font-family:Times New Roman;font-size:14.00;">5</text>
</g>
<!-- 4&#45;&gt;5 -->
<g id="edge56" class="edge"><title>4&#45;&gt;5</title>
<path style="fill:none;stroke:black;" d="M202,-1222C209,-1219 218,-1215 226,-1213 275,-1200 424,-1192 493,-1188"/>
<polygon style="fill:black;stroke:black;" points="493,-1191.5 503,-1188 493,-1184.5 493,-1191.5"/>
<text text-anchor="middle" x="321" y="-1216.9" style="font-family:Times New Roman;font-size:14.00;">\</text>
</g>
<!-- 165 (And) -->
<g id="node114" class="node"><title>165 (And)</title>
<ellipse style="fill:none;stroke:black;" cx="530" cy="-1133" rx="59.065" ry="18"/>
<text text-anchor="middle" x="530" y="-1128.9" style="font-family:Times New Roman;font-size:14.00;">165 (And)</text>
</g>
<!-- 28&#45;&gt;165 (And) -->
<g id="edge120" class="edge"><title>28&#45;&gt;165 (And)</title>
<path style="fill:none;stroke:black;" d="M208,-1133C262,-1133 383,-1133 461,-1133"/>
<polygon style="fill:black;stroke:black;" points="461,-1136.5 471,-1133 461,-1129.5 461,-1136.5"/>
<text text-anchor="middle" x="321" y="-1136.9" style="font-family:Times New Roman;font-size:14.00;">\0&#45;\127</text>
</g>
<!-- 144 (LeftParen) -->
<g id="node102" class="node"><title>144 (LeftParen)</title>
<ellipse style="fill:none;stroke:black;" cx="530" cy="-1079" rx="86.8603" ry="18"/>
<text text-anchor="middle" x="530" y="-1074.9" style="font-family:Times New Roman;font-size:14.00;">144 (LeftParen)</text>
</g>
<!-- 22&#45;&gt;144 (LeftParen) -->
<g id="edge108" class="edge"><title>22&#45;&gt;144 (LeftParen)</title>
<path style="fill:none;stroke:black;" d="M208,-1079C256,-1079 357,-1079 433,-1079"/>
<polygon style="fill:black;stroke:black;" points="433,-1082.5 443,-1079 433,-1075.5 433,-1082.5"/>
<text text-anchor="middle" x="321" y="-1082.9" style="font-family:Times New Roman;font-size:14.00;">\0&#45;\127</text>
</g>
<!-- 145 (RightParen) -->
<g id="node104" class="node"><title>145 (RightParen)</title>
<ellipse style="fill:none;stroke:black;" cx="530" cy="-1025" rx="93.8091" ry="18"/>
<text text-anchor="middle" x="530" y="-1020.9" style="font-family:Times New Roman;font-size:14.00;">145 (RightParen)</text>
</g>
<!-- 23&#45;&gt;145 (RightParen) -->
<g id="edge110" class="edge"><title>23&#45;&gt;145 (RightParen)</title>
<path style="fill:none;stroke:black;" d="M208,-1025C254,-1025 350,-1025 426,-1025"/>
<polygon style="fill:black;stroke:black;" points="426,-1028.5 436,-1025 426,-1021.5 426,-1028.5"/>
<text text-anchor="middle" x="321" y="-1028.9" style="font-family:Times New Roman;font-size:14.00;">\0&#45;\127</text>
</g>
<!-- 169 (Times) -->
<g id="node112" class="node"><title>169 (Times)</title>
<ellipse style="fill:none;stroke:black;" cx="530" cy="-971" rx="68.0985" ry="18"/>
<text text-anchor="middle" x="530" y="-966.9" style="font-family:Times New Roman;font-size:14.00;">169 (Times)</text>
</g>
<!-- 27&#45;&gt;169 (Times) -->
<g id="edge118" class="edge"><title>27&#45;&gt;169 (Times)</title>
<path style="fill:none;stroke:black;" d="M208,-971C260,-971 374,-971 452,-971"/>
<polygon style="fill:black;stroke:black;" points="452,-974.5 462,-971 452,-967.5 452,-974.5"/>
<text text-anchor="middle" x="321" y="-974.9" style="font-family:Times New Roman;font-size:14.00;">\0&#45;\127</text>
</g>
<!-- 167 (Plus) -->
<g id="node108" class="node"><title>167 (Plus)</title>
<ellipse style="fill:none;stroke:black;" cx="530" cy="-917" rx="59.9551" ry="18"/>
<text text-anchor="middle" x="530" y="-912.9" style="font-family:Times New Roman;font-size:14.00;">167 (Plus)</text>
</g>
<!-- 25&#45;&gt;167 (Plus) -->
<g id="edge114" class="edge"><title>25&#45;&gt;167 (Plus)</title>
<path style="fill:none;stroke:black;" d="M208,-917C262,-917 381,-917 459,-917"/>
<polygon style="fill:black;stroke:black;" points="459,-920.5 469,-917 459,-913.5 459,-920.5"/>
<text text-anchor="middle" x="321" y="-920.9" style="font-family:Times New Roman;font-size:14.00;">\0&#45;\127</text>
</g>
<!-- 168 (Minus) -->
<g id="node110" class="node"><title>168 (Minus)</title>
<ellipse style="fill:none;stroke:black;" cx="530" cy="-863" rx="68.7933" ry="18"/>
<text text-anchor="middle" x="530" y="-858.9" style="font-family:Times New Roman;font-size:14.00;">168 (Minus)</text>
</g>
<!-- 26&#45;&gt;168 (Minus) -->
<g id="edge116" class="edge"><title>26&#45;&gt;168 (Minus)</title>
<path style="fill:none;stroke:black;" d="M208,-863C260,-863 373,-863 451,-863"/>
<polygon style="fill:black;stroke:black;" points="451,-866.5 461,-863 451,-859.5 451,-866.5"/>
<text text-anchor="middle" x="321" y="-866.9" style="font-family:Times New Roman;font-size:14.00;">\0&#45;\127</text>
</g>
<!-- 128 (Error) -->
<g id="node78" class="node"><title>128 (Error)</title>
<ellipse style="fill:none;stroke:black;" cx="530" cy="-809" rx="64.1231" ry="18"/>
<text text-anchor="middle" x="530" y="-804.9" style="font-family:Times New Roman;font-size:14.00;">128 (Error)</text>
</g>
<!-- 14&#45;&gt;128 (Error) -->
<g id="edge84" class="edge"><title>14&#45;&gt;128 (Error)</title>
<path style="fill:none;stroke:black;" d="M208,-809C261,-809 377,-809 455,-809"/>
<polygon style="fill:black;stroke:black;" points="455,-812.5 465,-809 455,-805.5 455,-812.5"/>
<text text-anchor="middle" x="321" y="-812.9" style="font-family:Times New Roman;font-size:14.00;">\0&#45;&#45; /&#45;\127</text>
</g>
<!-- 15 -->
<g id="node80" class="node"><title>15</title>
<ellipse style="fill:none;stroke:black;" cx="530" cy="-755" rx="27" ry="18"/>
<text text-anchor="middle" x="530" y="-750.9" style="font-family:Times New Roman;font-size:14.00;">15</text>
</g>
<!-- 14&#45;&gt;15 -->
<g id="edge86" class="edge"><title>14&#45;&gt;15</title>
<path style="fill:none;stroke:black;" d="M202,-797C209,-794 218,-790 226,-788 319,-762 435,-756 493,-755"/>
<polygon style="fill:black;stroke:black;" points="493,-758.5 503,-755 493,-751.5 493,-758.5"/>
<text text-anchor="middle" x="321" y="-791.9" style="font-family:Times New Roman;font-size:14.00;">.</text>
</g>
<!-- 166 (Div) -->
<g id="node118" class="node"><title>166 (Div)</title>
<ellipse style="fill:none;stroke:black;" cx="530" cy="-701" rx="55.7874" ry="18"/>
<text text-anchor="middle" x="530" y="-696.9" style="font-family:Times New Roman;font-size:14.00;">166 (Div)</text>
</g>
<!-- 30&#45;&gt;166 (Div) -->
<g id="edge124" class="edge"><title>30&#45;&gt;166 (Div)</title>
<path style="fill:none;stroke:black;" d="M208,-683C263,-686 387,-692 464,-697"/>
<polygon style="fill:black;stroke:black;" points="463.701,-700.488 474,-698 464.398,-693.522 463.701,-700.488"/>
<text text-anchor="middle" x="321" y="-696.9" style="font-family:Times New Roman;font-size:14.00;">\0&#45;) +&#45;. 0&#45;\127</text>
</g>
<!-- 32 -->
<g id="node120" class="node"><title>32</title>
<ellipse style="fill:none;stroke:black;" cx="530" cy="-647" rx="27" ry="18"/>
<text text-anchor="middle" x="530" y="-642.9" style="font-family:Times New Roman;font-size:14.00;">32</text>
</g>
<!-- 30&#45;&gt;32 -->
<g id="edge126" class="edge"><title>30&#45;&gt;32</title>
<path style="fill:none;stroke:black;" d="M202,-670C209,-666 218,-663 226,-661 320,-638 436,-641 493,-644"/>
<polygon style="fill:black;stroke:black;" points="492.701,-647.488 503,-645 493.398,-640.522 492.701,-647.488"/>
<text text-anchor="middle" x="321" y="-664.9" style="font-family:Times New Roman;font-size:14.00;">*</text>
</g>
<!-- 31 -->
<g id="node122" class="node"><title>31</title>
<ellipse style="fill:none;stroke:black;" cx="530" cy="-558" rx="27" ry="18"/>
<text text-anchor="middle" x="530" y="-553.9" style="font-family:Times New Roman;font-size:14.00;">31</text>
</g>
<!-- 30&#45;&gt;31 -->
<g id="edge128" class="edge"><title>30&#45;&gt;31</title>
<path style="fill:none;stroke:black;" d="M189,-664C197,-649 209,-630 226,-619 270,-590 422,-570 493,-562"/>
<polygon style="fill:black;stroke:black;" points="493.398,-565.478 503,-561 492.701,-558.512 493.398,-565.478"/>
<text text-anchor="middle" x="321" y="-622.9" style="font-family:Times New Roman;font-size:14.00;">/</text>
</g>
<!-- 3&#45;&gt;3 -->
<g id="edge46" class="edge"><title>3&#45;&gt;3</title>
<path style="fill:none;stroke:black;" d="M168,-568C164,-578 169,-588 181,-588 189,-588 194,-584 195,-578"/>
<polygon style="fill:black;stroke:black;" points="198.478,-577.602 194,-568 191.512,-578.299 198.478,-577.602"/>
<text text-anchor="middle" x="181" y="-591.9" style="font-family:Times New Roman;font-size:14.00;">0&#45;9</text>
</g>
<!-- 136 (IntLiteral) -->
<g id="node44" class="node"><title>136 (IntLiteral)</title>
<ellipse style="fill:none;stroke:black;" cx="530" cy="-504" rx="84.7756" ry="18"/>
<text text-anchor="middle" x="530" y="-499.9" style="font-family:Times New Roman;font-size:14.00;">136 (IntLiteral)</text>
</g>
<!-- 3&#45;&gt;136 (IntLiteral) -->
<g id="edge44" class="edge"><title>3&#45;&gt;136 (IntLiteral)</title>
<path style="fill:none;stroke:black;" d="M208,-548C259,-541 371,-525 448,-515"/>
<polygon style="fill:black;stroke:black;" points="448.398,-518.478 458,-514 447.701,-511.512 448.398,-518.478"/>
<text text-anchor="middle" x="321" y="-547.9" style="font-family:Times New Roman;font-size:14.00;">\0&#45;/ :&#45;\127</text>
</g>
<!-- 143 (Colon) -->
<g id="node72" class="node"><title>143 (Colon)</title>
<ellipse style="fill:none;stroke:black;" cx="530" cy="-450" rx="66.9043" ry="18"/>
<text text-anchor="middle" x="530" y="-445.9" style="font-family:Times New Roman;font-size:14.00;">143 (Colon)</text>
</g>
<!-- 12&#45;&gt;143 (Colon) -->
<g id="edge78" class="edge"><title>12&#45;&gt;143 (Colon)</title>
<path style="fill:none;stroke:black;" d="M208,-450C260,-450 375,-450 452,-450"/>
<polygon style="fill:black;stroke:black;" points="452,-453.5 462,-450 452,-446.5 452,-453.5"/>
<text text-anchor="middle" x="321" y="-453.9" style="font-family:Times New Roman;font-size:14.00;">\0&#45;&lt; &gt;&#45;\127</text>
</g>
<!-- 13 -->
<g id="node74" class="node"><title>13</title>
<ellipse style="fill:none;stroke:black;" cx="530" cy="-396" rx="27" ry="18"/>
<text text-anchor="middle" x="530" y="-391.9" style="font-family:Times New Roman;font-size:14.00;">13</text>
</g>
<!-- 12&#45;&gt;13 -->
<g id="edge80" class="edge"><title>12&#45;&gt;13</title>
<path style="fill:none;stroke:black;" d="M202,-438C209,-435 218,-431 226,-429 319,-403 435,-397 493,-396"/>
<polygon style="fill:black;stroke:black;" points="493,-399.5 503,-396 493,-392.5 493,-399.5"/>
<text text-anchor="middle" x="321" y="-432.9" style="font-family:Times New Roman;font-size:14.00;">=</text>
</g>
<!-- 142 (Semicolon) -->
<g id="node106" class="node"><title>142 (Semicolon)</title>
<ellipse style="fill:none;stroke:black;" cx="530" cy="-342" rx="88.9449" ry="18"/>
<text text-anchor="middle" x="530" y="-337.9" style="font-family:Times New Roman;font-size:14.00;">142 (Semicolon)</text>
</g>
<!-- 24&#45;&gt;142 (Semicolon) -->
<g id="edge112" class="edge"><title>24&#45;&gt;142 (Semicolon)</title>
<path style="fill:none;stroke:black;" d="M208,-366C214,-365 220,-364 226,-364 296,-357 375,-352 434,-348"/>
<polygon style="fill:black;stroke:black;" points="434.398,-351.478 444,-347 433.701,-344.512 434.398,-351.478"/>
<text text-anchor="middle" x="321" y="-367.9" style="font-family:Times New Roman;font-size:14.00;">\0&#45;\127</text>
</g>
<!-- 159 (LT) -->
<g id="node90" class="node"><title>159 (LT)</title>
<ellipse style="fill:none;stroke:black;" cx="530" cy="-288" rx="50.2242" ry="18"/>
<text text-anchor="middle" x="530" y="-283.9" style="font-family:Times New Roman;font-size:14.00;">159 (LT)</text>
</g>
<!-- 18&#45;&gt;159 (LT) -->
<g id="edge96" class="edge"><title>18&#45;&gt;159 (LT)</title>
<path style="fill:none;stroke:black;" d="M208,-288C264,-288 392,-288 469,-288"/>
<polygon style="fill:black;stroke:black;" points="469,-291.5 479,-288 469,-284.5 469,-291.5"/>
<text text-anchor="middle" x="321" y="-291.9" style="font-family:Times New Roman;font-size:14.00;">\0&#45;&lt; &gt;&#45;\127</text>
</g>
<!-- 19 -->
<g id="node92" class="node"><title>19</title>
<ellipse style="fill:none;stroke:black;" cx="530" cy="-234" rx="27" ry="18"/>
<text text-anchor="middle" x="530" y="-229.9" style="font-family:Times New Roman;font-size:14.00;">19</text>
</g>
<!-- 18&#45;&gt;19 -->
<g id="edge98" class="edge"><title>18&#45;&gt;19</title>
<path style="fill:none;stroke:black;" d="M202,-276C209,-273 218,-269 226,-267 319,-242 435,-236 493,-234"/>
<polygon style="fill:black;stroke:black;" points="493,-237.5 503,-234 493,-230.5 493,-237.5"/>
<text text-anchor="middle" x="321" y="-270.9" style="font-family:Times New Roman;font-size:14.00;">=</text>
</g>
<!-- 161 (EQ) -->
<g id="node116" class="node"><title>161 (EQ)</title>
<ellipse style="fill:none;stroke:black;" cx="530" cy="-180" rx="54.2008" ry="18"/>
<text text-anchor="middle" x="530" y="-175.9" style="font-family:Times New Roman;font-size:14.00;">161 (EQ)</text>
</g>
<!-- 29&#45;&gt;161 (EQ) -->
<g id="edge122" class="edge"><title>29&#45;&gt;161 (EQ)</title>
<path style="fill:none;stroke:black;" d="M208,-204C214,-203 220,-203 226,-202 309,-194 405,-188 467,-184"/>
<polygon style="fill:black;stroke:black;" points="467.398,-187.478 477,-183 466.701,-180.512 467.398,-187.478"/>
<text text-anchor="middle" x="321" y="-209.9" style="font-family:Times New Roman;font-size:14.00;">\0&#45;\127</text>
</g>
<!-- 160 (GT) -->
<g id="node96" class="node"><title>160 (GT)</title>
<ellipse style="fill:none;stroke:black;" cx="530" cy="-126" rx="54.2008" ry="18"/>
<text text-anchor="middle" x="530" y="-121.9" style="font-family:Times New Roman;font-size:14.00;">160 (GT)</text>
</g>
<!-- 20&#45;&gt;160 (GT) -->
<g id="edge102" class="edge"><title>20&#45;&gt;160 (GT)</title>
<path style="fill:none;stroke:black;" d="M208,-126C263,-126 389,-126 466,-126"/>
<polygon style="fill:black;stroke:black;" points="466,-129.5 476,-126 466,-122.5 466,-129.5"/>
<text text-anchor="middle" x="321" y="-130.9" style="font-family:Times New Roman;font-size:14.00;">\0&#45;&lt; &gt;&#45;\127</text>
</g>
<!-- 21 -->
<g id="node98" class="node"><title>21</title>
<ellipse style="fill:none;stroke:black;" cx="530" cy="-72" rx="27" ry="18"/>
<text text-anchor="middle" x="530" y="-67.9" style="font-family:Times New Roman;font-size:14.00;">21</text>
</g>
<!-- 20&#45;&gt;21 -->
<g id="edge104" class="edge"><title>20&#45;&gt;21</title>
<path style="fill:none;stroke:black;" d="M202,-115C209,-111 218,-107 226,-105 319,-80 435,-74 493,-72"/>
<polygon style="fill:black;stroke:black;" points="493,-75.5001 503,-72 493,-68.5001 493,-75.5001"/>
<text text-anchor="middle" x="321" y="-112.9" style="font-family:Times New Roman;font-size:14.00;">=</text>
</g>
<!-- 2&#45;&gt;2 -->
<g id="edge42" class="edge"><title>2&#45;&gt;2</title>
<path style="fill:none;stroke:black;" d="M168,-44C164,-54 169,-64 181,-64 189,-64 194,-60 195,-54"/>
<polygon style="fill:black;stroke:black;" points="198.478,-53.6021 194,-44 191.512,-54.2987 198.478,-53.6021"/>
<text text-anchor="middle" x="181" y="-68.9" style="font-family:Times New Roman;font-size:14.00;">0&#45;9 A&#45;Z _ a&#45;z</text>
</g>
<!-- 140 (Identifier) -->
<g id="node41" class="node"><title>140 (Identifier)</title>
<ellipse style="fill:none;stroke:black;" cx="530" cy="-18" rx="82.8866" ry="18"/>
<text text-anchor="middle" x="530" y="-13.9" style="font-family:Times New Roman;font-size:14.00;">140 (Identifier)</text>
</g>
<!-- 2&#45;&gt;140 (Identifier) -->
<g id="edge40" class="edge"><title>2&#45;&gt;140 (Identifier)</title>
<path style="fill:none;stroke:black;" d="M208,-27C257,-26 361,-23 437,-20"/>
<polygon style="fill:black;stroke:black;" points="437,-23.5001 447,-20 437,-16.5001 437,-23.5001"/>
<text text-anchor="middle" x="321" y="-32.9" style="font-family:Times New Roman;font-size:14.00;">\0&#45;/ :&#45;@ [&#45;^ ` {&#45;\127</text>
</g>
<!-- 129 (UnterminatedStringLiteral) -->
<g id="node61" class="node"><title>129 (UnterminatedStringLiteral)</title>
<ellipse style="fill:none;stroke:black;" cx="959" cy="-1319" rx="166.772" ry="18"/>
<text text-anchor="middle" x="959" y="-1314.9" style="font-family:Times New Roman;font-size:14.00;">129 (UnterminatedStringLiteral)</text>
</g>
<!-- 8&#45;&gt;129 (UnterminatedStringLiteral) -->
<g id="edge66" class="edge"><title>8&#45;&gt;129 (UnterminatedStringLiteral)</title>
<path style="fill:none;stroke:black;" d="M557,-1347C607,-1344 717,-1337 809,-1330"/>
<polygon style="fill:black;stroke:black;" points="809.398,-1333.48 819,-1329 808.701,-1326.51 809.398,-1333.48"/>
<text text-anchor="middle" x="709" y="-1343.9" style="font-family:Times New Roman;font-size:14.00;">\0&#45;\127</text>
</g>
<!-- 7&#45;&gt;129 (UnterminatedStringLiteral) -->
<g id="edge64" class="edge"><title>7&#45;&gt;129 (UnterminatedStringLiteral)</title>
<path style="fill:none;stroke:black;" d="M557,-1296C602,-1298 696,-1302 774,-1307 785,-1308 796,-1308 808,-1308"/>
<polygon style="fill:black;stroke:black;" points="807.701,-1311.49 818,-1309 808.398,-1304.52 807.701,-1311.49"/>
<text text-anchor="middle" x="709" y="-1310.9" style="font-family:Times New Roman;font-size:14.00;">\0&#45;\127</text>
</g>
<!-- 137 (StringLiteral) -->
<g id="node59" class="node"><title>137 (StringLiteral)</title>
<ellipse style="fill:none;stroke:black;" cx="959" cy="-1241" rx="100.063" ry="18"/>
<text text-anchor="middle" x="959" y="-1236.9" style="font-family:Times New Roman;font-size:14.00;">137 (StringLiteral)</text>
</g>
<!-- 6&#45;&gt;137 (StringLiteral) -->
<g id="edge62" class="edge"><title>6&#45;&gt;137 (StringLiteral)</title>
<path style="fill:none;stroke:black;" d="M557,-1241C614,-1241 751,-1241 849,-1241"/>
<polygon style="fill:black;stroke:black;" points="849,-1244.5 859,-1241 849,-1237.5 849,-1244.5"/>
<text text-anchor="middle" x="709" y="-1244.9" style="font-family:Times New Roman;font-size:14.00;">\0&#45;\127</text>
</g>
<!-- 5&#45;&gt;4 -->
<g id="edge60" class="edge"><title>5&#45;&gt;4</title>
<path style="fill:none;stroke:black;" d="M504,-1182C440,-1171 275,-1144 226,-1170 211,-1178 200,-1194 193,-1207"/>
<polygon style="fill:black;stroke:black;" points="189.797,-1205.56 188,-1216 195.916,-1208.96 189.797,-1205.56"/>
<text text-anchor="middle" x="321" y="-1173.9" style="font-family:Times New Roman;font-size:14.00;">&quot; \ n</text>
</g>
<!-- 130 (IllegalEscapeSequence) -->
<g id="node56" class="node"><title>130 (IllegalEscapeSequence)</title>
<ellipse style="fill:none;stroke:black;" cx="959" cy="-1187" rx="148.01" ry="18"/>
<text text-anchor="middle" x="959" y="-1182.9" style="font-family:Times New Roman;font-size:14.00;">130 (IllegalEscapeSequence)</text>
</g>
<!-- 5&#45;&gt;130 (IllegalEscapeSequence) -->
<g id="edge58" class="edge"><title>5&#45;&gt;130 (IllegalEscapeSequence)</title>
<path style="fill:none;stroke:black;" d="M557,-1187C605,-1187 710,-1187 801,-1187"/>
<polygon style="fill:black;stroke:black;" points="801,-1190.5 811,-1187 801,-1183.5 801,-1190.5"/>
<text text-anchor="middle" x="709" y="-1190.9" style="font-family:Times New Roman;font-size:14.00;">\0&#45;! #&#45;[ ]&#45;m o&#45;\127</text>
</g>
<!-- 10&#45;&gt;131 (Newline) -->
<g id="edge74" class="edge"><title>10&#45;&gt;131 (Newline)</title>
<path style="fill:none;stroke:black;" d="M734,-1552C812,-1575 1058,-1634 1194,-1517 1261,-1459 1284,-1176 1289,-1085"/>
<polygon style="fill:black;stroke:black;" points="1292.49,-1085.3 1290,-1075 1285.52,-1084.6 1292.49,-1085.3"/>
<text text-anchor="middle" x="959" y="-1589.9" style="font-family:Times New Roman;font-size:14.00;">\0&#45;\127</text>
</g>
<!-- 157 (Assign) -->
<g id="node76" class="node"><title>157 (Assign)</title>
<ellipse style="fill:none;stroke:black;" cx="959" cy="-396" rx="70.878" ry="18"/>
<text text-anchor="middle" x="959" y="-391.9" style="font-family:Times New Roman;font-size:14.00;">157 (Assign)</text>
</g>
<!-- 13&#45;&gt;157 (Assign) -->
<g id="edge82" class="edge"><title>13&#45;&gt;157 (Assign)</title>
<path style="fill:none;stroke:black;" d="M557,-396C620,-396 780,-396 878,-396"/>
<polygon style="fill:black;stroke:black;" points="878,-399.5 888,-396 878,-392.5 878,-399.5"/>
<text text-anchor="middle" x="709" y="-399.9" style="font-family:Times New Roman;font-size:14.00;">\0&#45;\127</text>
</g>
<!-- 141 (DotDot) -->
<g id="node82" class="node"><title>141 (DotDot)</title>
<ellipse style="fill:none;stroke:black;" cx="959" cy="-755" rx="75.2406" ry="18"/>
<text text-anchor="middle" x="959" y="-750.9" style="font-family:Times New Roman;font-size:14.00;">141 (DotDot)</text>
</g>
<!-- 15&#45;&gt;141 (DotDot) -->
<g id="edge88" class="edge"><title>15&#45;&gt;141 (DotDot)</title>
<path style="fill:none;stroke:black;" d="M557,-755C619,-755 775,-755 873,-755"/>
<polygon style="fill:black;stroke:black;" points="873,-758.5 883,-755 873,-751.5 873,-758.5"/>
<text text-anchor="middle" x="709" y="-758.9" style="font-family:Times New Roman;font-size:14.00;">\0&#45;\127</text>
</g>
<!-- 162 (NE) -->
<g id="node88" class="node"><title>162 (NE)</title>
<ellipse style="fill:none;stroke:black;" cx="959" cy="-1403" rx="54.2008" ry="18"/>
<text text-anchor="middle" x="959" y="-1398.9" style="font-family:Times New Roman;font-size:14.00;">162 (NE)</text>
</g>
<!-- 17&#45;&gt;162 (NE) -->
<g id="edge94" class="edge"><title>17&#45;&gt;162 (NE)</title>
<path style="fill:none;stroke:black;" d="M557,-1403C624,-1403 799,-1403 895,-1403"/>
<polygon style="fill:black;stroke:black;" points="895,-1406.5 905,-1403 895,-1399.5 895,-1406.5"/>
<text text-anchor="middle" x="709" y="-1406.9" style="font-family:Times New Roman;font-size:14.00;">\0&#45;\127</text>
</g>
<!-- 163 (LE) -->
<g id="node94" class="node"><title>163 (LE)</title>
<ellipse style="fill:none;stroke:black;" cx="959" cy="-234" rx="52.1162" ry="18"/>
<text text-anchor="middle" x="959" y="-229.9" style="font-family:Times New Roman;font-size:14.00;">163 (LE)</text>
</g>
<!-- 19&#45;&gt;163 (LE) -->
<g id="edge100" class="edge"><title>19&#45;&gt;163 (LE)</title>
<path style="fill:none;stroke:black;" d="M557,-234C625,-234 802,-234 897,-234"/>
<polygon style="fill:black;stroke:black;" points="897,-237.5 907,-234 897,-230.5 897,-237.5"/>
<text text-anchor="middle" x="709" y="-237.9" style="font-family:Times New Roman;font-size:14.00;">\0&#45;\127</text>
</g>
<!-- 164 (GE) -->
<g id="node100" class="node"><title>164 (GE)</title>
<ellipse style="fill:none;stroke:black;" cx="959" cy="-72" rx="54.2008" ry="18"/>
<text text-anchor="middle" x="959" y="-67.9" style="font-family:Times New Roman;font-size:14.00;">164 (GE)</text>
</g>
<!-- 21&#45;&gt;164 (GE) -->
<g id="edge106" class="edge"><title>21&#45;&gt;164 (GE)</title>
<path style="fill:none;stroke:black;" d="M557,-72C624,-72 799,-72 895,-72"/>
<polygon style="fill:black;stroke:black;" points="895,-75.5001 905,-72 895,-68.5001 895,-75.5001"/>
<text text-anchor="middle" x="709" y="-76.9" style="font-family:Times New Roman;font-size:14.00;">\0&#45;\127</text>
</g>
<!-- 133 (CommentStart) -->
<g id="node128" class="node"><title>133 (CommentStart)</title>
<ellipse style="fill:none;stroke:black;" cx="959" cy="-665" rx="111.181" ry="18"/>
<text text-anchor="middle" x="959" y="-660.9" style="font-family:Times New Roman;font-size:14.00;">133 (CommentStart)</text>
</g>
<!-- 32&#45;&gt;133 (CommentStart) -->
<g id="edge136" class="edge"><title>32&#45;&gt;133 (CommentStart)</title>
<path style="fill:none;stroke:black;" d="M557,-648C613,-650 744,-656 841,-660"/>
<polygon style="fill:black;stroke:black;" points="841,-663.5 851,-660 841,-656.5 841,-663.5"/>
<text text-anchor="middle" x="709" y="-658.9" style="font-family:Times New Roman;font-size:14.00;">\0&#45;\127</text>
</g>
<!-- 31&#45;&gt;131 (Newline) -->
<g id="edge130" class="edge"><title>31&#45;&gt;131 (Newline)</title>
<path style="fill:none;stroke:black;" d="M556,-564C579,-568 614,-575 644,-579 698,-586 1084,-588 1126,-621 1195,-673 1263,-941 1285,-1029"/>
<polygon style="fill:black;stroke:black;" points="1281.61,-1029.88 1287,-1039 1288.47,-1028.51 1281.61,-1029.88"/>
<text text-anchor="middle" x="959" y="-624.9" style="font-family:Times New Roman;font-size:14.00;">\0</text>
</g>
<!-- 31&#45;&gt;31 -->
<g id="edge132" class="edge"><title>31&#45;&gt;31</title>
<path style="fill:none;stroke:black;" d="M507,-568C488,-580 496,-594 530,-594 558,-594 568,-585 561,-575"/>
<polygon style="fill:black;stroke:black;" points="562.831,-571.951 553,-568 558.221,-577.219 562.831,-571.951"/>
<text text-anchor="middle" x="530" y="-597.9" style="font-family:Times New Roman;font-size:14.00;">\1&#45;\t \11&#45;\127</text>
</g>
<!-- 33 -->
<g id="node126" class="node"><title>33</title>
<ellipse style="fill:none;stroke:black;" cx="959" cy="-558" rx="27" ry="18"/>
<text text-anchor="middle" x="959" y="-553.9" style="font-family:Times New Roman;font-size:14.00;">33</text>
</g>
<!-- 31&#45;&gt;33 -->
<g id="edge134" class="edge"><title>31&#45;&gt;33</title>
<path style="fill:none;stroke:black;" d="M557,-558C631,-558 837,-558 922,-558"/>
<polygon style="fill:black;stroke:black;" points="922,-561.5 932,-558 922,-554.5 922,-561.5"/>
<text text-anchor="middle" x="709" y="-561.9" style="font-family:Times New Roman;font-size:14.00;">\n</text>
</g>
<!-- 33&#45;&gt;131 (Newline) -->
<g id="edge138" class="edge"><title>33&#45;&gt;131 (Newline)</title>
<path style="fill:none;stroke:black;" d="M985,-552C1032,-542 1136,-528 1194,-581 1262,-642 1284,-936 1289,-1029"/>
<polygon style="fill:black;stroke:black;" points="1285.52,-1029.4 1290,-1039 1292.49,-1028.7 1285.52,-1029.4"/>
<text text-anchor="middle" x="1169" y="-584.9" style="font-family:Times New Roman;font-size:14.00;">\0&#45;\127</text>
</g>
</g>
</svg>
